HIERARCHY
ROOT Hips
{
  OFFSET -187.679 86.5976 -156.378
  CHANNELS 6 Xposition Yposition Zposition Zrotation Xrotation Yrotation
  JOINT LeftUpLeg
  {
    OFFSET 8.64259 1.95398 -2.38835
    CHANNELS 3 Zrotation Xrotation Yrotation
    JOINT LeftLeg
    {
      OFFSET 43.7702 0 0
      CHANNELS 3 Zrotation Xrotation Yrotation
      JOINT LeftFoot
      {
        OFFSET 40.6238 0 0
        CHANNELS 3 Zrotation Xrotation Yrotation
        JOINT LeftToeBase
        {
          OFFSET 12.7242 0 0
          CHANNELS 3 Zrotation Xrotation Yrotation
          End Site
          {
            OFFSET 0 0 0
          }
        }
      }
    }
  }
  JOINT RightUpLeg
  {
    OFFSET -8.2249 1.95398 -2.59336
    CHANNELS 3 Zrotation Xrotation Yrotation
    JOINT RightLeg
    {
      OFFSET 43.5653 0 0
      CHANNELS 3 Zrotation Xrotation Yrotation
      JOINT RightFoot
      {
        OFFSET 40.6238 0 0
        CHANNELS 3 Zrotation Xrotation Yrotation
        JOINT RightToeBase
        {
          OFFSET 12.7242 0 0
          CHANNELS 3 Zrotation Xrotation Yrotation
          End Site
          {
            OFFSET 0 0 0
          }
        }
      }
    }
  }
  JOINT Spine
  {
    OFFSET 0.165834 0.87714 6.61349
    CHANNELS 3 Zrotation Xrotation Yrotation
    JOINT Spine1
    {
      OFFSET 7.38963 1.71661e-005 0
      CHANNELS 3 Zrotation Xrotation Yrotation
      JOINT Spine2
      {
        OFFSET 11.9445 1.14441e-005 0
        CHANNELS 3 Zrotation Xrotation Yrotation
        JOINT Spine3
        {
          OFFSET 14.7254 4.19617e-005 0
          CHANNELS 3 Zrotation Xrotation Yrotation
          JOINT Spine4
          {
            OFFSET 10.9679 0 0
            CHANNELS 3 Zrotation Xrotation Yrotation
            JOINT RightShoulder
            {
              OFFSET 2.46616 -1.6653 3.69651
              CHANNELS 3 Zrotation Xrotation Yrotation
              JOINT RightArm
              {
                OFFSET 13.0012 0 0
                CHANNELS 3 Zrotation Xrotation Yrotation
                JOINT RightForeArm
                {
                  OFFSET 28.7848 1.52588e-005 0
                  CHANNELS 3 Zrotation Xrotation Yrotation
                  JOINT RightHand
                  {
                    OFFSET 26.5688 1.52588e-005 0
                    CHANNELS 3 Zrotation Xrotation Yrotation
                    End Site
                    {
                      OFFSET 0 0 0
                    }
                  }
                }
              }
            }
            JOINT LeftShoulder
            {
              OFFSET 2.38034 -1.29275 -3.7523
              CHANNELS 3 Zrotation Xrotation Yrotation
              JOINT LeftArm
              {
                OFFSET 16.3182 6.10352e-005 0
                CHANNELS 3 Zrotation Xrotation Yrotation
                JOINT LeftForeArm
                {
                  OFFSET 27.0901 0 0
                  CHANNELS 3 Zrotation Xrotation Yrotation
                  JOINT LeftHand
                  {
                    OFFSET 24.5451 1.52588e-005 0
                    CHANNELS 3 Zrotation Xrotation Yrotation
                    End Site
                    {
                      OFFSET 0 0 0
                    }
                  }
                }
              }
            }
            JOINT Neck
            {
              OFFSET 5.0226 -0.0266342 0
              CHANNELS 3 Zrotation Xrotation Yrotation
              JOINT Head
              {
                OFFSET 6.69363 2.86102e-005 0
                CHANNELS 3 Zrotation Xrotation Yrotation
                End Site
                {
                  OFFSET 0 0 0
                }
              }
            }
          }
        }
      }
    }
  }
}
MOTION
Frames:	10
Frame Time:	0.0416667
-94.5523 95.37 -84.8752 -115.805 53.3155 -76.7511 -171.48 14.1501 83.2368 -45.3239 18.8677 -1.70775 68.6296 5.57541 6.31665 16.957 -3.69856 -2.23954 172.5 -8.47688 74.231 -68.6755 -17.0419 -12.3219 54.6828 0.753386 -1.42118 19.2055 -2.92756 3.68796 1.33408 8.54435 -89.1214 9.76421 3.05709 1.50012 -1.90384 3.12015 1.36402 -24.4524 2.46498 2.34974 -4.43978 2.46498 2.34974 88.083 -45.0112 -104.947 13.2332 -7.64415 -68.4182 -44.8488 -2.68395 -74.2144 -17.342 -1.69041 6.19915 -89.7569 -44.6214 78.1113 -34.58 20.4479 24.9311 7.03117 -13.7296 -1.97166 -0.518676 0.0134332 2.03375 21.3711 1.42455 -1.64719 5.57946 1.97683 1.12504 
-97.7409 96.747 -87.2944 -113.33 52.7608 -78.3341 -172.326 11.1884 82.6559 -42.516 18.4244 -0.995558 69.5902 6.01524 6.3253 17.5704 -3.362 -2.4629 176.488 -1.51724 78.3277 -72.9487 -10.2473 -10.8612 58.2808 -0.488246 -1.61111 20.2424 -2.32168 2.65776 1.10082 8.39855 -89.1841 10.0595 2.56516 1.40653 -1.60958 2.62458 1.29222 -24.1524 2.02392 2.1125 -4.13978 2.02393 2.1125 86.5477 -47.3622 -106.666 11.2314 -12.1366 -58.3455 -46.3164 0.852 -77.4961 -18.8862 -2.03475 7.6329 -89.6608 -46.2875 78.6503 -30.1408 21.4686 16.0738 7.2899 -12.418 -7.98442 -0.720327 0.00358852 2.13071 19.8927 2.12242 -0.577817 6.23387 2.21218 -0.0263558 
-100.798 98.5204 -89.9382 -111.604 49.6013 -78.1509 -173.43 6.69877 83.3231 -38.9375 20.5491 1.49403 69.6957 5.92541 5.97812 17.8518 -3.71779 -1.40348 177.442 3.17321 82.6774 -71.9636 -6.86733 -8.67105 61.3746 -1.44325 -2.154 19.0903 -2.72626 3.14195 0.73272 8.35406 -89.4779 10.1588 1.69821 0.893273 -1.51125 1.73587 0.817637 -24.0501 1.35124 1.36238 -4.03744 1.35125 1.36238 85.8958 -48.6192 -107.281 11.1462 -17.2764 -46.4007 -52.9397 0.260731 -78.8473 -9.31271 -0.803691 5.29027 -90.1358 -48.3952 78.3971 -24.5814 21.3538 6.08915 6.5377 -14.2342 -14.7137 -1.21533 -0.0554287 -1.08694 18.3236 2.41378 0.708288 6.60909 2.03139 -0.954685 
-103.742 99.9123 -92.3395 -109.115 45.6561 -78.6756 -174.312 2.94853 83.9515 -35.6895 23.7647 4.25868 69.5895 5.95239 6.20395 17.8197 -3.92354 -0.964619 176.733 7.74986 85.9658 -67.4028 -3.04162 -6.0442 62.9869 -1.84439 -2.33797 19.5894 -2.52564 2.86899 0.355329 8.27149 -89.6528 10.3283 0.866834 0.614021 -1.34248 0.893026 0.575275 -23.8779 0.642212 0.846145 -3.86522 0.642217 0.846147 84.6306 -50.383 -108.634 11.4992 -21.1009 -34.3358 -45.0798 -1.72933 -72.7428 -8.98365 -0.581247 2.83803 -90.3833 -47.7731 77.8781 -21.4365 20.3703 -4.26064 6.24066 -14.5084 -21.4714 -1.30005 -0.0674641 -2.86887 16.8551 1.61922 -0.988861 6.93574 1.81109 -0.324495 
-106.871 100.836 -94.696 -106.888 41.2647 -79.2484 -174.905 -0.497759 84.6356 -33.6167 27.1631 7.14773 69.8828 6.26706 6.77611 18.0624 -3.78093 -1.06879 175.04 10.8525 87.645 -58.9289 0.835684 -2.96557 63.4073 -1.94537 -2.44821 20.18 -2.33346 2.65432 -0.00708753 8.26918 -89.8359 10.3357 0.0610719 0.320915 -1.33528 0.0751167 0.317918 -23.8701 -0.0382135 0.324433 -3.85747 -0.0382206 0.324425 83.8631 -51.0967 -109.543 13.2887 -23.0611 -23.006 -27.0972 -1.1954 -59.693 -14.4221 -1.73546 8.37642 -90.6602 -47.4093 77.3692 -15.5923 23.1578 -17.8899 5.27768 -15.8996 -24.5481 -0.0658986 -0.0408461 -2.60132 16.788 0.690171 -2.80031 7.11575 1.53913 0.945755 
-109.526 101.342 -97.0753 -104.777 37.8085 -80.2052 -174.68 -3.08233 85.7709 -31.5217 30.2157 8.40884 70.0725 6.63802 6.87202 18.223 -3.36813 -1.87136 174.58 13.3543 88.9417 -48.2666 4.35576 -0.624229 62.9185 -1.8753 -1.95733 19.9481 -2.38349 2.67062 -0.180962 8.24062 -89.9434 10.3928 -0.334473 0.141661 -1.27807 -0.327931 0.156247 -23.8136 -0.36158 0.0345907 -3.80096 -0.361605 0.0345825 84.34 -50.8593 -108.913 16.9005 -23.6312 -14.0829 -32.868 -11.7553 -51.5587 -11.41 -0.822781 1.9333 -91.7005 -46.4462 75.529 -8.35458 23.9638 -33.0428 7.34969 -11.5024 -24.6817 0.0714685 -0.0614698 -3.08929 16.9074 -0.706788 -4.6353 7.39205 0.793459 1.80331 
-112.295 101.448 -99.3341 -103.244 34.3758 -81.3337 -174.665 -5.65203 86.5176 -30.1504 32.8239 9.68514 70.9241 7.32244 6.43968 18.4584 -3.11999 -2.23531 174.724 14.2576 88.9935 -35.3737 5.68593 0.595429 61.1996 -1.53606 -1.60588 20.1474 -2.37222 2.74129 -0.41413 8.24439 -89.9206 10.3861 -0.788553 0.226645 -1.28469 -0.777806 0.261123 -23.8218 -0.820203 -0.0208441 -3.80911 -0.8202 -0.0208419 83.9997 -51.6561 -109.158 20.0278 -22.7045 -7.59172 -28.305 -20.0136 -36.8742 -8.43892 -0.135307 -3.31583 -91.8108 -43.8242 74.6477 -4.10229 22.1505 -46.2993 9.76305 -6.41585 -24.8919 0.190727 -0.0628727 -3.12014 17.6154 -2.05877 -6.99412 7.22428 0.295926 2.85415 
-115.26 101.327 -101.915 -102.816 32.3374 -82.4842 -174.142 -9.08382 87.1081 -28.3617 35.1477 9.93423 71.6086 7.98571 6.38229 18.629 -2.74591 -2.95584 175.092 13.8415 88.4327 -22.4598 5.37409 0.907194 58.3983 -0.662058 -1.55834 20.2489 -2.17639 2.26643 -0.565178 8.32196 -89.8266 10.2323 -1.04688 0.433891 -1.4383 -1.02675 0.479547 -23.9768 -1.1289 0.0991621 -3.96414 -1.12887 0.0991683 83.923 -52.0394 -109.145 22.2827 -21.4656 -4.03791 -15.125 -18.6121 -14.3671 -11.0665 -0.154899 -3.49843 -91.9778 -41.6773 73.7629 -1.26452 19.0022 -56.1272 11.086 -4.26753 -26.7838 1.95585 -0.0625872 -3.56619 18.3114 -2.68061 -7.48479 7.34754 -0.126536 2.67805 
-118.287 100.659 -104.699 -102.826 31.5693 -83.4643 -173.158 -12.2815 87.9656 -27.2796 36.2721 9.41094 73.7633 9.08191 5.52054 18.7033 -2.16455 -4.26568 175.131 12.9223 88.0744 -11.8591 5.94332 1.63844 57.0746 -0.642769 -1.01383 20.9296 -2.06066 2.28492 -0.67994 8.3889 -89.6813 10.0999 -1.20973 0.733743 -1.5707 -1.17625 0.786273 -24.1099 -1.3743 0.336206 -4.09725 -1.37432 0.336193 83.1197 -52.1765 -110.276 25.101 -20.2445 -0.319523 -9.23527 -11.4931 -0.288186 -8.50991 -0.0550246 -4.56372 -91.3494 -39.1761 74.0594 -0.00103797 15.8438 -63.0508 12.8434 -2.21967 -29.7995 2.15839 -0.0544768 -3.36661 18.4696 -2.76698 -7.82456 7.69753 -0.0894265 2.68095 
-121.691 99.505 -107.821 -102.973 31.5255 -83.7344 -171.655 -14.9741 89.5179 -28.092 37.4033 8.73749 76.2617 10.7781 5.75101 19.381 -1.82544 -4.49551 175.13 13.2153 88.5011 -8.76984 10.6778 3.15141 59.0353 -1.54261 0.227607 23.1996 -1.81501 2.82471 -0.723153 8.4128 -89.6459 10.0527 -1.27986 0.809112 -1.61792 -1.24299 0.864655 -24.1575 -1.46386 0.387001 -4.14485 -1.46385 0.387 84.0755 -50.8924 -109.295 29.382 -14.8243 5.65099 -11.292 -8.83418 0.0524933 -6.26784 -0.0908433 -3.60678 -90.9538 -38.4045 74.496 1.03001 13.3918 -67.1685 14.4703 -1.76857 -34.393 1.47395 -0.0838991 -4.12071 18.5695 -2.49703 -6.63135 7.70234 -0.253956 1.8697 
